<mxfile host="65bd71144e">
    <diagram id="HbglKBi4Yc2wCjJZtuF5" name="Page-1">
        <mxGraphModel dx="1844" dy="2358" grid="1" gridSize="10" guides="1" tooltips="1" connect="1" arrows="1" fold="1" page="1" pageScale="1" pageWidth="850" pageHeight="1100" math="0" shadow="0">
            <root>
                <mxCell id="0"/>
                <mxCell id="1" parent="0"/>
                <mxCell id="2" value="&lt;b&gt;&lt;u&gt;&lt;font style=&quot;font-size: 22px;&quot;&gt;2st Floor&lt;/font&gt;&lt;/u&gt;&lt;/b&gt;" style="rounded=0;whiteSpace=wrap;html=1;" parent="1" vertex="1">
                    <mxGeometry x="-225" y="-50" width="1180" height="750" as="geometry"/>
                </mxCell>
                <mxCell id="3" value="&lt;div&gt;Patient Room&lt;/div&gt;" style="rounded=0;whiteSpace=wrap;html=1;strokeWidth=3;glass=0;shadow=0;" parent="1" vertex="1">
                    <mxGeometry x="-20" y="210" width="150" height="140" as="geometry"/>
                </mxCell>
                <mxCell id="4" value="&lt;div&gt;Patient Room&lt;/div&gt;Corridor" style="rounded=0;whiteSpace=wrap;html=1;direction=south;strokeWidth=1;" parent="1" vertex="1">
                    <mxGeometry x="130" y="70" width="100" height="390" as="geometry"/>
                </mxCell>
                <mxCell id="5" value="Reception Hall" style="rounded=0;whiteSpace=wrap;html=1;strokeWidth=1;" parent="1" vertex="1">
                    <mxGeometry x="130" y="460" width="260" height="100" as="geometry"/>
                </mxCell>
                <mxCell id="6" value="Reception" style="rounded=0;whiteSpace=wrap;html=1;strokeWidth=3;" parent="1" vertex="1">
                    <mxGeometry x="30" y="460" width="100" height="100" as="geometry"/>
                </mxCell>
                <mxCell id="7" value="Cafeteria&lt;div&gt;( Don&#39;t Open Dead Inside )&amp;nbsp;&lt;/div&gt;" style="rounded=0;whiteSpace=wrap;html=1;strokeWidth=3;" parent="1" vertex="1">
                    <mxGeometry x="600" y="370" width="300" height="250" as="geometry"/>
                </mxCell>
                <mxCell id="9" value="WC" style="rounded=0;whiteSpace=wrap;html=1;strokeWidth=3;" parent="1" vertex="1">
                    <mxGeometry x="-20" y="300" width="50" height="50" as="geometry"/>
                </mxCell>
                <mxCell id="11" value="Main Hall" style="rounded=0;whiteSpace=wrap;html=1;direction=south;" parent="1" vertex="1">
                    <mxGeometry x="500" y="330" width="100" height="130" as="geometry"/>
                </mxCell>
                <mxCell id="13" value="Lift" style="rounded=0;whiteSpace=wrap;html=1;strokeWidth=3;" parent="1" vertex="1">
                    <mxGeometry x="450" y="350" width="50" height="50" as="geometry"/>
                </mxCell>
                <mxCell id="14" value="Barricaded Door" style="rounded=0;whiteSpace=wrap;html=1;strokeWidth=3;" parent="1" vertex="1">
                    <mxGeometry x="60" y="10" width="240" height="60" as="geometry"/>
                </mxCell>
                <mxCell id="15" value="Stairs" style="rounded=0;whiteSpace=wrap;html=1;strokeWidth=3;" parent="1" vertex="1">
                    <mxGeometry x="500" y="230" width="100" height="100" as="geometry"/>
                </mxCell>
                <mxCell id="17" value="&lt;b&gt;&lt;u&gt;&lt;font style=&quot;font-size: 22px;&quot;&gt;Ground Floor&lt;/font&gt;&lt;/u&gt;&lt;/b&gt;" style="rounded=0;whiteSpace=wrap;html=1;" parent="1" vertex="1">
                    <mxGeometry x="-230" y="710" width="1180" height="750" as="geometry"/>
                </mxCell>
                <mxCell id="20" value="Barricaded Hall" style="rounded=0;whiteSpace=wrap;html=1;strokeWidth=3;" parent="1" vertex="1">
                    <mxGeometry x="130" y="1210" width="470" height="100" as="geometry"/>
                </mxCell>
                <mxCell id="22" value="&lt;font style=&quot;font-size: 28px;&quot;&gt;Outside&lt;/font&gt;" style="rounded=0;whiteSpace=wrap;html=1;strokeWidth=3;" parent="1" vertex="1">
                    <mxGeometry x="600" y="1040" width="300" height="200" as="geometry"/>
                </mxCell>
                <mxCell id="25" value="Hall" style="rounded=0;whiteSpace=wrap;html=1;direction=south;" parent="1" vertex="1">
                    <mxGeometry x="500" y="1070" width="100" height="140" as="geometry"/>
                </mxCell>
                <mxCell id="26" value="Lift" style="rounded=0;whiteSpace=wrap;html=1;strokeWidth=3;" parent="1" vertex="1">
                    <mxGeometry x="450" y="1100" width="50" height="50" as="geometry"/>
                </mxCell>
                <mxCell id="28" value="Stairs" style="rounded=0;whiteSpace=wrap;html=1;strokeWidth=3;" parent="1" vertex="1">
                    <mxGeometry x="500" y="970" width="100" height="100" as="geometry"/>
                </mxCell>
                <mxCell id="31" value="Cafeteria Hall" style="rounded=0;whiteSpace=wrap;html=1;strokeWidth=1;" parent="1" vertex="1">
                    <mxGeometry x="400" y="460" width="200" height="100" as="geometry"/>
                </mxCell>
                <mxCell id="32" value="" style="rounded=0;whiteSpace=wrap;html=1;direction=south;strokeWidth=4;" parent="1" vertex="1">
                    <mxGeometry x="390" y="460" width="10" height="100" as="geometry"/>
                </mxCell>
            </root>
        </mxGraphModel>
    </diagram>
</mxfile>